<svg xmlns="http://www.w3.org/2000/svg" version="1.1" xmlns:xlink="http://www.w3.org/1999/xlink" width="512" height="512" x="0" y="0" viewBox="0 0 60 60" style="enable-background:new 0 0 512 512" xml:space="preserve" class=""><g><path fill="#e1efff" d="M12.137 51.47a.5.5 0 0 1-.259-.928l5.406-3.272-7.158 4.13a.5.5 0 0 1-.515-.856l24.33-15.182L6.162 51.4a.5.5 0 0 1-.509-.86l10.36-6.261L4.021 51.2a.5.5 0 0 1-.513-.858l25.868-15.949-27.107 15.65a.5.5 0 0 1-.509-.86l12.956-7.821-13.135 7.583a.5.5 0 0 1-.512-.858l26.422-16.233L1.28 46.987a.5.5 0 0 1-.511-.858l24.683-15.153L1.279 44.931a.5.5 0 0 1-.508-.861l13.536-8.2-13.028 7.516a.5.5 0 0 1-.513-.858l23.7-14.735L1.278 41.182a.5.5 0 0 1-.509-.86l10.744-6.544-10.235 5.909a.5.5 0 0 1-.512-.859L15.573 29.7 1.277 37.95a.5.5 0 0 1-.517-.85l19.607-12.421L1.277 35.7a.5.5 0 0 1-.515-.856l13.7-8.587L1.276 33.87a.5.5 0 0 1-.513-.857l7.879-4.891-7.366 4.252a.5.5 0 0 1-.514-.856l7.529-4.705-7.016 4.05a.5.5 0 0 1-.516-.855L8 25.45l-6.72 3.879a.5.5 0 0 1-.524-.85l11.243-7.391-10.725 6.188a.5.5 0 0 1-.518-.854l4.139-2.64-3.621 2.09a.5.5 0 0 1-.533-.845l9.11-6.271-8.578 4.951A.5.5 0 0 1 .6 23.54a.5.5 0 0 1 .142-.68l5.213-3.538-4.682 2.7a.5.5 0 0 1-.534-.843L4.4 18.655l-3.123 1.8a.5.5 0 0 1-.548-.834l3.84-2.857-3.293 1.9a.5.5 0 0 1-.55-.832l1.739-1.312-1.193.688a.5.5 0 0 1-.6-.785l2.073-2.09-1.47.849a.5.5 0 0 1-.6-.076.5.5 0 0 1-.089-.6l.711-1.3a.5.5 0 0 1-.215-.933l1.181-.673a.5.5 0 0 1 .688.674l-.632 1.151L5.482 11.6a.5.5 0 0 1 .6.785l-2.074 2.09L8.994 11.6a.5.5 0 0 1 .551.832l-1.738 1.309 3.715-2.141a.5.5 0 0 1 .549.834l-3.843 2.855 6.4-3.693a.5.5 0 0 1 .534.843l-3.654 2.524 5.831-3.363a.5.5 0 0 1 .531.846l-5.216 3.54 7.6-4.386a.5.5 0 0 1 .533.844l-9.109 6.273 12.329-7.118a.5.5 0 0 1 .518.854l-4.132 2.636 6.045-3.49a.5.5 0 0 1 .525.85l-11.245 7.387L30 11.593a.5.5 0 0 1 .517.855l-7.243 4.563 9.384-5.418a.5.5 0 0 1 .515.856l-7.519 4.7 9.622-5.554a.5.5 0 0 1 .514.857l-7.892 4.9 9.971-5.757a.5.5 0 0 1 .516.856L24.69 21.028l16.347-9.437a.5.5 0 0 1 .518.855l-19.61 12.417 22.99-13.272a.5.5 0 0 1 .512.858l-14.8 9.129 17.3-9.988a.5.5 0 0 1 .51.859L37.694 19l12.841-7.41a.5.5 0 0 1 .514.857l-23.69 14.727 26.995-15.585a.5.5 0 0 1 .508.86L41.3 20.672l15.732-9.083a.5.5 0 0 1 .512.858L32.864 27.6 58.72 12.671a.5.5 0 0 1 .511.858L32.807 29.763 58.72 14.8a.5.5 0 0 1 .509.86l-12.943 7.816L58.72 16.3a.5.5 0 0 1 .512.858L33.361 33.11 58.72 18.47a.5.5 0 0 1 .509.86l-10.356 6.259L58.72 19.9a.5.5 0 0 1 .514.857L34.909 35.939 58.72 22.192a.5.5 0 0 1 .509.861l-5.419 3.28 4.91-2.833a.5.5 0 0 1 .516.856L38.354 37.5 58.72 25.745a.5.5 0 0 1 .511.859l-8.643 5.3 8.132-4.694a.5.5 0 0 1 .512.858l-9.145 5.649 8.633-4.984a.5.5 0 0 1 .512.859l-5.464 3.365L58.72 30.1a.5.5 0 0 1 .516.855l-11.062 6.989 10.546-6.088a.5.5 0 0 1 .518.855l-9.974 6.353L58.72 33.6a.5.5 0 0 1 .516.856l-4.5 2.828 3.981-2.3a.5.5 0 0 1 .52.854l-6.644 4.282 6.127-3.537a.5.5 0 0 1 .527.849l-7.94 5.288 7.413-4.28a.5.5 0 0 1 .524.851L55.418 41.8l3.3-1.907a.5.5 0 0 1 .529.848l-3.79 2.559 3.263-1.884a.5.5 0 0 1 .54.84l-4.334 3.094 3.794-2.191a.5.5 0 0 1 .559.825l-3.933 3.106 3.374-1.947a.5.5 0 0 1 .581.806l-2.386 2.114 1.777-1.026a.5.5 0 0 1 .613.778l-1.168 1.228a.5.5 0 0 1 .166.926l-2.376 1.371a.5.5 0 0 1-.613-.777l.887-.933-3.075 1.77a.5.5 0 0 1-.581-.806l2.385-2.113-5.057 2.919a.5.5 0 0 1-.56-.825l3.933-3.1-6.808 3.925a.5.5 0 0 1-.54-.839l4.335-3.095-6.814 3.934a.5.5 0 0 1-.529-.847L46.688 48l-5.9 3.405a.5.5 0 0 1-.524-.85l3.824-2.51-5.82 3.355a.5.5 0 0 1-.528-.848l7.943-5.29L35.05 51.4a.5.5 0 0 1-.521-.853l6.64-4.271-8.875 5.124a.5.5 0 0 1-.517-.855l4.509-2.835-6.393 3.69a.5.5 0 0 1-.519-.854l9.974-6.346-12.485 7.2a.5.5 0 0 1-.516-.855L37.41 43.56 23.825 51.4a.5.5 0 0 1-.513-.858l5.459-3.362-7.31 4.22a.5.5 0 0 1-.513-.858l9.135-5.642-11.26 6.5a.5.5 0 0 1-.511-.858l8.643-5.3L16.279 51.4a.5.5 0 0 1-.516-.855L36.648 37.4l-24.261 14a.5.5 0 0 1-.25.07Z" opacity="1" data-original="#e1efff" class=""></path><path fill="#d14a7b" d="M2.094 13.5a.5.5 0 0 1-.282-.913l.539-.367-1.071.618a.5.5 0 0 1-.556-.827L4.469 9.1 1.28 10.938a.5.5 0 0 1-.574-.814l2.265-1.932-1.671.967a.5.5 0 0 1-.621-.767l1.282-1.426a.53.53 0 0 1-.446-.25.5.5 0 0 1 .185-.683l2.373-1.372a.5.5 0 0 1 .621.768L3.538 6.711 7.2 4.6a.5.5 0 0 1 .574.813L5.511 7.341 10.263 4.6a.5.5 0 0 1 .556.827l-3.745 2.91L13.553 4.6a.5.5 0 0 1 .531.845l-.544.37L15.647 4.6a.5.5 0 0 1 .54.84l-2.511 1.78 4.542-2.62a.5.5 0 0 1 .553.83l-4.206 3.2 6.982-4.03a.5.5 0 0 1 .531.845l-.549.374L23.643 4.6a.5.5 0 0 1 .543.838l-3.147 2.276 5.4-3.116a.5.5 0 0 1 .553.83l-4.263 3.256L29.807 4.6a.5.5 0 0 1 .532.845l-.746.51L31.94 4.6a.5.5 0 0 1 .56.825l-4.677 3.7L35.655 4.6a.5.5 0 0 1 .56.825l-4.648 3.662L39.343 4.6a.5.5 0 0 1 .54.84l-2.592 1.841L41.94 4.6a.5.5 0 0 1 .552.831l-4.137 3.135L45.23 4.6a.5.5 0 0 1 .531.846l-.027.018 1.5-.864a.5.5 0 0 1 .54.84l-2.547 1.81 4.589-2.65a.5.5 0 0 1 .543.838l-3.034 2.187L52.569 4.6a.5.5 0 0 1 .542.839l-2.9 2.08 5.008-2.891a.5.5 0 0 1 .561.823l-4.721 3.77 6.3-3.636a.5.5 0 0 1 .573.814L53.984 9.73l4.469-2.58a.5.5 0 0 1 .648.129.5.5 0 0 1-.045.659l-2.7 2.68 2.368-1.366a.5.5 0 0 1 .586.8l-.368.337a.49.49 0 0 1 .338.1.5.5 0 0 1 .19.515l-.285 1.218a.5.5 0 0 1 .061.895l-.5.288a.5.5 0 0 1-.737-.546l.223-.96-2.607 1.501a.5.5 0 0 1-.587-.8l.2-.184-1.71.986a.5.5 0 0 1-.6-.787l2.7-2.68-6.01 3.469a.5.5 0 0 1-.572-.814l3.944-3.329-7.19 4.148a.5.5 0 0 1-.562-.823l4.723-3.771L42 13.411a.5.5 0 0 1-.542-.839l2.894-2.078-5.052 2.919a.5.5 0 0 1-.543-.838l3.035-2.189-5.247 3.028a.5.5 0 0 1-.54-.84l2.547-1.809-4.594 2.651a.5.5 0 0 1-.53-.847l.027-.018-1.5.866a.5.5 0 0 1-.552-.831l4.137-3.138-6.877 3.97a.5.5 0 0 1-.54-.84l2.591-1.843-4.653 2.685a.5.5 0 0 1-.56-.825l4.647-3.663-7.778 4.49a.5.5 0 0 1-.559-.825l4.677-3.7-7.837 4.525a.5.5 0 0 1-.532-.846l.747-.51-2.35 1.357a.5.5 0 0 1-.554-.83l4.262-3.256-7.081 4.088a.5.5 0 0 1-.543-.838l3.147-2.278-5.4 3.117a.5.5 0 0 1-.532-.846l.555-.378-2.122 1.227A.5.5 0 0 1 7.7 12.6l4.2-3.2-6.98 4.031a.5.5 0 0 1-.539-.841l2.515-1.783-4.552 2.625a.494.494 0 0 1-.25.068Z" opacity="1" data-original="#d14a7b"></path><path fill="#e1efff" d="M9.268 9.323a.5.5 0 0 1-.385-.823l.911-1.1-1.357.783a.5.5 0 0 1-.6-.791l.906-.88-.465.267a.5.5 0 0 1-.63-.758l1.8-2.1L8.28 4.6a.5.5 0 0 1-.675-.7l.9-1.453a.5.5 0 0 1-.44-.895L9.722.6a.5.5 0 0 1 .674.7L9.5 2.741l1.965-1.134a.5.5 0 0 1 .63.758L10.3 4.466l1.418-.819a.5.5 0 0 1 .6.791l-.906.881.308-.176a.5.5 0 0 1 .634.752l-.911 1.094.255-.146a.5.5 0 1 1 .5.865l-2.68 1.548a.491.491 0 0 1-.25.067ZM20.028 9.468a.5.5 0 0 1-.386-.818l.2-.243-.881.508a.5.5 0 0 1-.637-.749l1.53-1.872-1.574.906a.5.5 0 0 1-.608-.781l1.408-1.447-.8.462a.5.5 0 0 1-.586-.8l.327-.3a.509.509 0 0 1-.359-.161.5.5 0 0 1-.043-.624l.736-1.064a.48.48 0 0 1-.472-.248.5.5 0 0 1 .182-.682L19.722.6a.5.5 0 0 1 .661.717l-.673.971 1.6-.922a.5.5 0 0 1 .586.8l-.106.1a.508.508 0 0 1 .556.166.5.5 0 0 1-.036.656L20.9 4.536l.821-.473a.494.494 0 0 1 .631.108.5.5 0 0 1 .005.641l-1.53 1.871.893-.515a.5.5 0 0 1 .636.75l-.51.622a.5.5 0 0 1 .088.905l-1.656.955a.49.49 0 0 1-.25.068ZM30.028 9.468a.5.5 0 0 1-.432-.751l1-1.734-2.145 1.241a.5.5 0 0 1-.6-.794l.784-.75-.359.206a.5.5 0 0 1-.627-.762L29.425 4.1l-1.145.66a.5.5 0 0 1-.68-.687l.974-1.652h-.009a.5.5 0 0 1-.5-.865L29.722.6a.493.493 0 0 1 .605.081.5.5 0 0 1 .075.605l-.974 1.652 2.1-1.212a.5.5 0 0 1 .627.761l-1.773 2.031 1.338-.772a.5.5 0 0 1 .595.794l-.782.75.187-.107a.491.491 0 0 1 .6.079.5.5 0 0 1 .079.6L31.4 7.6l.036-.021a.5.5 0 0 1 .5.865l-1.658.956a.49.49 0 0 1-.25.068ZM38.975 9.176a.5.5 0 0 1-.392-.811L39.95 6.64l-1.657.96a.5.5 0 0 1-.615-.775L39.3 5.1l-1.016.586a.5.5 0 0 1-.6-.786l.81-.812-.214.112a.5.5 0 0 1-.658-.722l.7-.992a.551.551 0 0 1-.443-.25.5.5 0 0 1 .182-.682L39.722.6a.5.5 0 0 1 .658.721l-.618.871 1.508-.87a.5.5 0 0 1 .6.786l-.811.812.656-.378a.5.5 0 0 1 .615.774l-1.616 1.728 1.006-.58a.5.5 0 0 1 .641.743l-1.367 1.725.726-.418a.5.5 0 0 1 .5.865l-2.995 1.729a.493.493 0 0 1-.25.068ZM48.868 9.11a.5.5 0 0 1-.358-.848l.587-.6-.711.41a.5.5 0 0 1-.592-.8l.645-.6-.159.092a.5.5 0 0 1-.617-.772l1.547-1.68-.93.536a.5.5 0 0 1-.683-.682l1.017-1.772-.049.027a.5.5 0 0 1-.5-.865L49.722.6a.493.493 0 0 1 .6.079.5.5 0 0 1 .08.6l-1.014 1.775L51.559 1.8a.5.5 0 0 1 .617.771l-1.547 1.678 1.091-.63a.5.5 0 0 1 .592.8l-.645.6.053-.031a.5.5 0 0 1 .608.782l-.588.6a.5.5 0 0 1 .48.877l-3.1 1.791a.489.489 0 0 1-.252.072Z" opacity="1" data-original="#e1efff" class=""></path><path fill="#b0ccdd" d="M24.22 45.5a.5.5 0 0 1-.339-.867l1.014-.937L22.28 45.2a.5.5 0 0 1-.634-.753l1.323-1.586-.689.4a.5.5 0 0 1-.731-.567l.258-.927a.491.491 0 0 1-.209-.2.5.5 0 0 1 .182-.682l.5-.289a.5.5 0 0 1 .732.566l-.172.619 2.062-1.19a.5.5 0 0 1 .634.753l-1.321 1.586 4.062-2.345a.5.5 0 0 1 .589.8l-1.012.935 3.014-1.74a.5.5 0 0 1 .588.8l-.974.891 2.942-1.7a.5.5 0 0 1 .571.816l-.363.3 1.948-1.124a.5.5 0 0 1 .584.8l-.869.78 2.427-1.4a.5.5 0 0 1 .58.807l-.536.473a.5.5 0 0 1 .62.745l-.471.649a.5.5 0 0 1 .51.244.5.5 0 0 1-.183.682l-1.817 1.05a.5.5 0 0 1-.654-.726l.422-.583-2.276 1.314a.5.5 0 0 1-.58-.807l.532-.469-2.219 1.28a.5.5 0 0 1-.584-.8l.87-.78-2.755 1.59a.5.5 0 0 1-.572-.816l.362-.3-1.946 1.123a.5.5 0 0 1-.653-.137.5.5 0 0 1 .065-.665l.974-.892-2.941 1.7a.489.489 0 0 1-.25.075Z" opacity="1" data-original="#b0ccdd"></path><path fill="#9ebbce" d="M18.365 47.5a.5.5 0 0 1-.324-.881l.429-.365-.19.109a.5.5 0 0 1-.594-.794l1.914-1.832-1.32.763a.5.5 0 0 1-.57-.816l.492-.411a.5.5 0 0 1-.511-.836l.779-.72-.19.109a.5.5 0 0 1-.739-.536l.317-1.5a.5.5 0 0 1-.078-.9l.5-.288a.507.507 0 0 1 .544.029.5.5 0 0 1 .2.508l-.272 1.261 3.1-1.79a.5.5 0 0 1 .588.8l-.779.72 1.052-.607a.5.5 0 0 1 .57.817l-.487.406a.5.5 0 0 1 .516.831L21.4 43.405l1.322-.762a.5.5 0 0 1 .574.813l-.479.407a.5.5 0 0 1 .6.71l-.6 1.121a.5.5 0 0 1 .385.914l-1.382.8a.5.5 0 0 1-.691-.667l.582-1.095-3.096 1.784a.491.491 0 0 1-.25.07Z" opacity="1" data-original="#9ebbce"></path><path fill="#b0ccdd" d="M9.028 45.47a.5.5 0 0 1-.391-.812l.315-.4-1.943 1.126a.5.5 0 0 1-.616-.774L7.8 43.1l-2.26 1.3a.5.5 0 0 1-.684-.68l.761-1.33-.052.029a.5.5 0 0 1-.5-.865l1.657-.954a.5.5 0 0 1 .683.68l-.76 1.33 3.532-2.039a.5.5 0 0 1 .616.774l-1.4 1.509 1.341-.774a.5.5 0 0 1 .642.744l-.408.514a.473.473 0 0 1 .459.249.5.5 0 0 1-.183.683L9.278 45.4a.49.49 0 0 1-.25.07Z" opacity="1" data-original="#b0ccdd"></path><path fill="#9ebbce" d="M41.137 47.47a.5.5 0 0 1-.478-.649l.475-1.528-3.394 1.959a.5.5 0 0 1-.6-.792l1.569-1.517-1.432.827a.5.5 0 0 1-.59-.8l1.67-1.545-1.08.623a.5.5 0 0 1-.6-.791l1.861-1.807-1.263.729a.5.5 0 0 1-.706-.637l.605-1.351a.509.509 0 0 1-.53-.241.5.5 0 0 1 .184-.683L38 38.6a.5.5 0 0 1 .706.637l-.586 1.308 3.415-1.972a.5.5 0 0 1 .6.791l-1.863 1.81 1.458-.842a.5.5 0 0 1 .589.8l-1.671 1.538 1.085-.626a.5.5 0 0 1 .6.792l-1.57 1.518.978-.565a.5.5 0 0 1 .728.581l-.5 1.6a.489.489 0 0 1 .461.249.5.5 0 0 1-.183.682l-.861.5a.5.5 0 0 1-.249.069Z" opacity="1" data-original="#9ebbce"></path><path fill="#b0ccdd" d="M50.508 45.5a.5.5 0 0 1-.369-.837l1.236-1.363-1.095.632a.5.5 0 0 1-.74-.533l.326-1.611a.5.5 0 0 1-.086-.906l.5-.288a.5.5 0 0 1 .741.533l-.281 1.385 2.928-1.69a.5.5 0 0 1 .619.77l-1.235 1.354 1.589-.917a.5.5 0 0 1 .651.732l-.559.751a.492.492 0 0 1 .383.247.5.5 0 0 1-.182.682l-1.655.956a.5.5 0 0 1-.623-.1.5.5 0 0 1-.028-.632l.419-.563-2.289 1.322a.489.489 0 0 1-.25.076Z" opacity="1" data-original="#b0ccdd"></path><path fill="#7a93a0" d="M15.453 59.389a.5.5 0 0 1-.372-.834l1.418-1.58-2.07 1.2a.5.5 0 0 1-.579-.81l.927-.81-.5.287a.5.5 0 0 1-.6-.784l2.336-2.367-1.731 1a.5.5 0 0 1-.5-.866l4.94-2.852a.5.5 0 0 1 .605.784l-2.336 2.367 1.731-1a.5.5 0 0 1 .579.81l-.929.81.35-.2a.5.5 0 0 1 .622.767l-1.419 1.581.8-.46a.5.5 0 0 1 .5.865L15.7 59.321a.49.49 0 0 1-.247.068Z" opacity="1" data-original="#7a93a0"></path><path fill="#7a93a0" d="M10.6 56.424a.5.5 0 0 1-.292-.906l.267-.193-.766.443a.5.5 0 0 1-.544-.837l1.757-1.28-1.722.995a.5.5 0 0 1-.55-.833l3.215-2.407-2.685 1.548a.5.5 0 0 1-.551-.832L12.2 49.5l-2.92 1.687a.5.5 0 0 1-.556-.828l4.211-3.276-3.655 2.109a.5.5 0 0 1-.557-.827l4.269-3.331-3.712 2.144a.5.5 0 0 1-.545-.837l2.325-1.694-1.78 1.028a.5.5 0 0 1-.669-.159.5.5 0 0 1 .123-.677l2.542-1.863-2 1.152a.5.5 0 0 1-.54-.84l1.387-.987-.847.488a.5.5 0 0 1-.535-.844l.36-.25a.5.5 0 0 1-.369-.9l2.294-1.67-1.75 1.01a.5.5 0 0 1-.564-.822l4.971-4.013-4.4 2.542A.5.5 0 0 1 8.74 37l1.48-1.056-.94.542a.5.5 0 0 1-.653-.136.5.5 0 0 1 .065-.665l1.528-1.4-.94.542a.5.5 0 0 1-.582-.807l.626-.555-.044.025a.5.5 0 0 1-.671-.7l.848-1.322a.506.506 0 0 1-.573-.231.5.5 0 0 1 .182-.682l1.655-.956a.5.5 0 0 1 .671.7l-.831 1.3 2.539-1.464a.5.5 0 0 1 .582.806l-.629.558.618-.356a.5.5 0 0 1 .588.8l-1.527 1.4 5.99-3.458a.5.5 0 0 1 .54.84l-1.473 1.05.933-.538a.5.5 0 0 1 .564.822l-4.967 4.014 4.4-2.542a.5.5 0 0 1 .544.837l-2.3 1.674 1.757-1.012a.5.5 0 0 1 .535.844l-.359.248a.516.516 0 0 1 .495.225.5.5 0 0 1-.131.677l-1.387.988.847-.489a.5.5 0 0 1 .546.836l-2.542 1.864 2-1.153a.5.5 0 0 1 .545.837L16.94 41.6l1.78-1.028a.5.5 0 0 1 .557.827l-4.269 3.331 3.712-2.143a.5.5 0 0 1 .556.827l-4.214 3.279 3.658-2.111a.5.5 0 0 1 .551.832L15.8 48.036l2.92-1.685a.5.5 0 0 1 .55.833l-3.216 2.407 2.666-1.538a.5.5 0 0 1 .544.837l-1.758 1.279 1.214-.7a.5.5 0 0 1 .67.161.5.5 0 0 1-.128.678l-.415.3a.5.5 0 0 1 .555.235.5.5 0 0 1-.182.682l-8.371 4.833a.493.493 0 0 1-.249.066Z" opacity="1" data-original="#7a93a0"></path><path fill="#7a93a0" d="M14.03 31.571a.5.5 0 0 1-.33-.875l.448-.394a.5.5 0 0 1-.528-.773l.727-1.042a.5.5 0 0 1-.464-.249.5.5 0 0 1 .182-.682l1.657-.956a.5.5 0 0 1 .66.718l-.656.941 2.2-1.271a.5.5 0 0 1 .58.808l-.375.33.455-.262a.5.5 0 1 1 .5.865L14.28 31.5a.489.489 0 0 1-.25.071Z" opacity="1" data-original="#7a93a0"></path><path fill="#6c8493" d="M11.044 56.47a.5.5 0 0 1-.374-.832l.883-1-1.814 1.05a.5.5 0 0 1-.591-.8l1.243-1.155-1.111.641a.5.5 0 0 1-.6-.789l2.13-2.085-1.53.883a.5.5 0 0 1-.592-.8l1.771-1.659-1.179.676a.5.5 0 0 1-.61-.78l2.493-2.593-1.883 1.088a.5.5 0 0 1-.609-.78l2.47-2.557-1.861 1.073a.5.5 0 0 1-.6-.787l2.22-2.209-1.617.933a.5.5 0 0 1-.567-.819l.392-.322a.5.5 0 0 1-.391-.882l.355-.29a.488.488 0 0 1-.446-.208.5.5 0 0 1 .074-.667l.947-.82-.37.214a.5.5 0 0 1-.579-.808l1.102-.96-.516.3a.5.5 0 0 1-.6-.785L11 35.582l-1.724.995a.5.5 0 0 1-.593-.8l1.785-1.677-1.188.685a.5.5 0 0 1-.586-.8l.772-.7-.186.107a.5.5 0 0 1-.666-.709l.8-1.2a.5.5 0 0 1-.345-.923l1.657-.956a.5.5 0 0 1 .666.709l-.762 1.147 2.4-1.384a.5.5 0 0 1 .586.8l-.772.7.821-.473a.5.5 0 0 1 .594.795l-1.78 1.682 1.248-.72a.5.5 0 0 1 .6.785L12 36l1.724-.995a.5.5 0 0 1 .579.808l-1.1.961.519-.3a.5.5 0 0 1 .577.81l-.947.819.37-.213a.5.5 0 0 1 .566.82l-.356.29a.5.5 0 0 1 .355.886l-.392.322a.5.5 0 0 1 .427.849L12.1 43.269l1.619-.935a.5.5 0 0 1 .609.78l-2.468 2.557 1.86-1.071a.5.5 0 0 1 .61.779l-2.493 2.594 1.883-1.087a.5.5 0 0 1 .592.8l-1.771 1.659 1.179-.681a.5.5 0 0 1 .6.789l-2.13 2.092 1.53-.883a.5.5 0 0 1 .591.8l-1.245 1.156.654-.377a.5.5 0 0 1 .624.765l-.883 1 .235-.136a.5.5 0 1 1 .5.866l-2.9 1.675a.49.49 0 0 1-.252.059Z" opacity="1" data-original="#6c8493"></path><path fill="#7a93a0" d="M49.029 56.468a.5.5 0 0 1-.383-.822l.125-.149-1.289.744a.5.5 0 0 1-.63-.756l1.873-2.21-2.425 1.4a.5.5 0 1 1-.5-.865l4.92-2.841a.5.5 0 0 1 .631.756l-1.873 2.209 1.242-.717a.5.5 0 0 1 .634.754l-.484.576a.487.487 0 0 1 .246.214.5.5 0 0 1-.182.682l-1.655.956a.49.49 0 0 1-.25.069ZM46.316 31.488a.5.5 0 0 1-.25-.932l1.655-.956a.5.5 0 0 1 .5.865l-1.655.956a.491.491 0 0 1-.25.067Z" opacity="1" data-original="#7a93a0"></path><path fill="#7a93a0" d="M42.361 59.362a.5.5 0 0 1-.379-.826l1.694-1.971-2.331 1.346a.5.5 0 0 1-.537-.842l.575-.4-.1.059a.5.5 0 0 1-.551-.832l3.362-2.529-2.814 1.619a.5.5 0 0 1-.562-.823l4.782-3.826-4.22 2.436a.5.5 0 0 1-.537-.841l.548-.384-.011.006a.5.5 0 0 1-.549-.833l3.146-2.35-2.6 1.5a.5.5 0 0 1-.553-.829l3.85-2.95-3.3 1.9a.5.5 0 0 1-.536-.843l.51-.356a.5.5 0 0 1-.52-.851l2.584-1.9-2.032 1.182a.5.5 0 0 1-.546-.836l2.547-1.867-2 1.155a.5.5 0 0 1-.552-.831l3.642-2.769-3.091 1.784a.5.5 0 0 1-.56-.825l4.557-3.6-4 2.307a.5.5 0 0 1-.553-.83l3.752-2.866-3.2 1.847a.5.5 0 0 1-.559-.826l3.592-2.835-3.029 1.748a.5.5 0 0 1-.6-.792l2.02-1.946-1.417.818a.5.5 0 0 1-.609-.781l2.417-2.5-1.811 1.039a.5.5 0 0 1-.59-.8l.956-.886-.366.21a.5.5 0 0 1-.664-.712l.775-1.15a.5.5 0 0 1-.326-.926l1.657-.956a.5.5 0 0 1 .664.712l-.731 1.09 2.338-1.35a.5.5 0 0 1 .59.8l-.955.885 1.038-.6a.5.5 0 0 1 .609.78l-2.417 2.5 1.862-1.074a.5.5 0 0 1 .6.792l-2.02 1.949 5.5-3.175a.5.5 0 0 1 .559.825l-3.591 2.834L50.7 31.3a.5.5 0 0 1 .554.83L47.5 34.993l3.219-1.858a.5.5 0 0 1 .664.151.5.5 0 0 1-.1.674l-4.557 3.6 4-2.307a.5.5 0 0 1 .552.831l-3.648 2.771 3.09-1.784a.5.5 0 0 1 .546.836l-2.552 1.87 2.006-1.157a.5.5 0 0 1 .546.836l-2.584 1.9 2.038-1.177a.5.5 0 0 1 .536.843l-.51.356a.505.505 0 0 1 .64.17.5.5 0 0 1-.113.674l-3.846 2.948 3.293-1.9a.5.5 0 0 1 .549.833l-3.15 2.352 2.6-1.5a.5.5 0 0 1 .537.842l-.54.378a.5.5 0 0 1 .562.823l-4.778 3.82 4.22-2.436a.5.5 0 0 1 .667.157.5.5 0 0 1-.116.675l-3.362 2.528 2.811-1.622a.5.5 0 0 1 .537.842l-4.875 3.419a.5.5 0 0 1-.033.609l-1.693 1.97 1.064-.614a.5.5 0 0 1 .5.865L42.611 59.3a.489.489 0 0 1-.25.062Z" opacity="1" data-original="#7a93a0"></path><path fill="#6c8493" d="M48.359 56.47a.5.5 0 0 1-.383-.822l.8-.948-1.926 1.112a.5.5 0 0 1-.616-.775l2.067-2.2L46.28 54a.5.5 0 0 1-.583-.806l1.341-1.2-.758.438a.5.5 0 0 1-.594-.795l1.905-1.816-1.311.757a.5.5 0 0 1-.653-.136.5.5 0 0 1 .065-.666l1.559-1.425-.971.56a.5.5 0 0 1-.572-.814l.644-.544-.072.041a.5.5 0 0 1-.61-.779l2.482-2.577-1.872 1.08a.5.5 0 0 1-.6-.789l2.15-2.118-1.55.9a.5.5 0 0 1-.576-.812l.886-.761-.31.178a.5.5 0 0 1-.58-.816l1.2-1.064-.623.36a.5.5 0 0 1-.567-.82l.395-.324a.5.5 0 0 1-.419-.859l1.742-1.627-1.151.664a.5.5 0 0 1-.6-.785l2.292-2.307-1.688.975a.5.5 0 0 1-.618-.771l1.908-2.078-1.29.745a.5.5 0 0 1-.658-.722l.707-1a.5.5 0 0 1-.446-.25.5.5 0 0 1 .182-.682l1.657-.956a.5.5 0 0 1 .658.721l-.623.881 2.142-1.234a.5.5 0 0 1 .619.77l-1.909 2.077 2.11-1.214a.5.5 0 0 1 .6.785l-2.292 2.307 1.688-.975a.5.5 0 0 1 .591.8l-1.742 1.627 1.151-.664a.5.5 0 0 1 .567.819l-.4.325a.5.5 0 0 1 .41.869L50.1 38.55l.623-.36a.5.5 0 0 1 .577.81l-.882.758.306-.176a.5.5 0 0 1 .6.789l-2.152 2.12 1.552-.9a.5.5 0 0 1 .61.779l-2.482 2.576 1.872-1.08a.5.5 0 0 1 .572.815l-.644.543.072-.041a.5.5 0 0 1 .588.8l-1.557 1.423.969-.559a.5.5 0 0 1 .594.8l-1.907 1.817 1.313-.757a.5.5 0 0 1 .583.806l-1.339 1.2.756-.436a.5.5 0 0 1 .615.775l-2.067 2.205 1.452-.838a.5.5 0 0 1 .634.754l-.8.95.092-.053a.5.5 0 0 1 .5.866L48.609 56.4a.49.49 0 0 1-.25.07Z" opacity="1" data-original="#6c8493"></path><path fill="#262626" d="M50.135.451c-2.482 0-2.636 2.415-2.645 4.268h-4.9v-.125c0-1.879-.279-4.125-2.756-4.057C37.465.6 37.382 2.762 37.4 4.581h-4.947c0-1.764-.12-4.235-2.546-4.174-2.285.058-2.392 2.265-2.371 4.06h-5.042C22.5 2.7 22.456.4 20.073.439s-2.55 2.3-2.563 4.1h-4.94c.006-1.807-.048-4.05-2.481-4.028C7.717.537 7.463 2.62 7.435 4.435 5.334 4.4 3.148 4.292 1.562 5.94a5.233 5.233 0 0 0-1.3 3.9V46.1c0 1.659.207 3.226 1.592 4.381 1.707 1.422 4.258 1.156 6.42 1.093v.779c0 1.817-.04 3.689 2.159 4.014a.861.861 0 0 0 .281.037 5.986 5.986 0 0 0 2.536-.462c-.006 1.625.217 3.264 2.3 3.432h.031a.87.87 0 0 0 .13.016c1.425 0 3.07-.092 3.788-1.564a3.787 3.787 0 0 0 .225-1.728v-4.664h20.552v4.02c0 .566-.039 1.148 0 1.714.127 1.866 1.649 2.125 3.152 2.148a.993.993 0 0 0 .266 0c1.5-.121 2.929-.873 3.03-2.527.015-.237.014-.476.01-.715a6.019 6.019 0 0 0 1.8.221.251.251 0 0 0 .027 0 .913.913 0 0 0 .13 0c1.31-.1 2.779-.712 3.01-2.167a7.115 7.115 0 0 0 .026-1.112v-1.58a12.643 12.643 0 0 0 5.043-.421 4.653 4.653 0 0 0 2.958-4.437c.024-3.1 0-6.2 0-9.3V10.544a7.861 7.861 0 0 0-.42-3.517c-1.32-2.711-4.248-2.461-6.792-2.444.011-1.776.013-4.131-2.381-4.132ZM48.19 3.234a1.676 1.676 0 1 1 3.352 0v3.613a1.676 1.676 0 0 1-3.352 0Zm-10.013 0a1.676 1.676 0 1 1 3.351 0v3.613a1.676 1.676 0 0 1-3.351 0Zm-9.8 0a1.676 1.676 0 1 1 3.351 0v3.613a1.676 1.676 0 0 1-3.351 0Zm-10.044 0a1.676 1.676 0 1 1 3.351 0v3.613a1.676 1.676 0 0 1-3.351 0Zm-10.014 0a1.676 1.676 0 1 1 3.352 0v3.613a1.676 1.676 0 0 1-3.352 0Zm4.962 42.441v8.256c-.006.126.005.248-.013.373-.166 1.159-1.02 1.295-1.979 1.295-1.836-.148-1.56-2.211-1.56-3.493V33.723c0-1.272-.338-3.107 1.371-3.322 1.8-.226 2.116 1.12 2.169 2.434-.015 4.035.012 8.071.012 12.1Zm5-6.611V54.534c0 .739.01 1.479 0 2.218 0 .139.012.284 0 .423-.1 1.17-.921 1.428-1.921 1.439-2-.237-1.631-2.553-1.631-4.023v-1.078c.028-1.693 0-3.388 0-5.081V33.577c0-.408.014-.834 0-1.253v-.78c0-1.141-.441-3.779 1.061-4.16 2.481-.63 2.491 1.889 2.491 3.486Zm22 11.5H19.724v-3.112c.651 0 1.3.006 1.952 0 .876-.008 1.976-.467 2.049-1.476a5.88 5.88 0 0 0 .008-.515h12.538v.516a1.4 1.4 0 0 0 1.247 1.466 11.344 11.344 0 0 0 1.6.023h1.161Zm-18-5.488v.999a.8.8 0 0 1-.09.388l-.03.052-.023.022c-.142-.013-.322.009-.435.009h-1.975v-7.1h1.8a.668.668 0 0 1 .743.66c.026.312 0 .637 0 .949v4.017Zm1.457-.539v-3.076h12.533v3.078H23.729Zm14 .4v-5.019a1.656 1.656 0 0 1 .091-.384l.05-.069c.143.013.321-.008.439-.008h1.962v7.068h-1.8a.653.653 0 0 1-.739-.642c-.041-.303-.012-.627-.012-.94Zm6.577 13.736c-1.4 0-2.493-.4-2.582-1.978-.026-.478 0-.967 0-1.446V46.94s.005-.009.005-.014v-8a.194.194 0 0 0-.005-.02v-6.794c0-1.088-.09-2.219 0-3.305.2-2.419 3.4-1.663 3.552.394.025.342 0 .7 0 1.038v2.351c-.06 4.4 0 8.806 0 13.207v7.221c0 .388-.029.789 0 1.176 0 .056.021.1.027.15.07 1.407.216 4.236-1.006 4.335Zm5.026-2.973c-1.319-.018-2.506-.325-2.617-1.9V31.806c.076-.963.59-1.568 1.548-1.506a1.907 1.907 0 0 1 1.939 1.416 4.256 4.256 0 0 1 .065 1.076v18.683c0 .832.389 4.064-.935 4.225Zm8.806-7.6c-.79 2.97-3.969 2.55-6.423 2.492v-5.124c.52.01 1.041.02 1.554-.021a2.456 2.456 0 0 0 2.313-2.437 2.607 2.607 0 0 0-2.354-2.447 10.727 10.727 0 0 0-1.513-.035v-7.606c0-.368.027-.746 0-1.112-.107-1.5-1.274-2.091-2.635-2.111a5.107 5.107 0 0 0-2.36.469c.007-.43.02-.863-.005-1.289a2.293 2.293 0 0 0-2.492-2.2c-1.435-.035-3.319.2-3.847 1.807A4.9 4.9 0 0 0 40.276 30v8.538h-1.955c-.884.006-1.974.472-2.047 1.485a6.001 6.001 0 0 0-.008.52H23.728v-.52a1.379 1.379 0 0 0-1.184-1.44 9.526 9.526 0 0 0-1.655-.031h-1.165V31.39c0-1.448.387-3.556-1.093-4.42a4.57 4.57 0 0 0-4.387.319 2.634 2.634 0 0 0-.968 2.25v.251c-.024-.01-.04-.024-.065-.033-1.971-.713-4.873.151-4.934 2.529-.07 2.7-.047 5.407-.023 8.112a20.182 20.182 0 0 0-1.279.012 2.6 2.6 0 0 0-2.422 2.57 2.509 2.509 0 0 0 2.029 2.583 8.688 8.688 0 0 0 1.695.044v4.857c-1.73.078-3.877.293-5.187-.746a4.242 4.242 0 0 1-1.353-3.674V13.389h56.538V45.4a10.8 10.8 0 0 1-.128 2.7Zm-6.423-3.54v-3.117c1.235-.039 2.773-.031 2.682 1.595-.084 1.499-1.48 1.553-2.682 1.521Zm-43.448-.129c-1.2.04-2.7 0-2.81-1.38-.121-1.512 1.58-1.515 2.8-1.476.003.953.01 1.905.01 2.856ZM58.05 7.867a7.655 7.655 0 0 1 .225 2.592v2.152H1.736v-1.376c0-.756-.026-1.518 0-2.274a3.331 3.331 0 0 1 3.272-3.4c.8-.029 1.614-.012 2.422 0 0 1.8.087 3.931 2.481 3.931 2.419-.244 2.636-2.1 2.655-4.028h4.941c-.011 1.8 0 4.1 2.42 4.1 2.346-.237 2.546-2.174 2.562-4.029h5.06c.007 1.787.168 4.061 2.544 4.061 2.34-.236 2.394-2.323 2.369-4.174h4.951c0 1.849.283 3.867 2.511 4.016a.647.647 0 0 0 .245.028c2.433-.246 2.45-2.288 2.425-4.182h4.894c-.014 1.787-.081 4.268 2.377 4.268 2.428-.244 2.629-2.2 2.644-4.142 2.217-.037 4.648-.061 5.541 2.457Z" opacity="1" data-original="#262626"></path></g></svg>