<svg xmlns="http://www.w3.org/2000/svg" version="1.1" xmlns:xlink="http://www.w3.org/1999/xlink" width="512" height="512" x="0" y="0" viewBox="0 0 512 512" style="enable-background:new 0 0 512 512" xml:space="preserve" class=""><g><path fill="#e4eaf8" d="m148.761 327.018 178.2-178.2 36.165 36.166-178.2 178.2z" opacity="1" data-original="#e4eaf8"></path><path fill="#cbd9f8" d="m167.04 345.3 178.2-178.2 17.886 17.886-178.2 178.199z" opacity="1" data-original="#cbd9f8"></path><path fill="#464655" d="m337.409 210.762-36.171-36.171-10.927 10.927h.001l36.17 36.17zM221.687 326.484l-36.171-36.171-10.927 10.927 36.171 36.171z" opacity="1" data-original="#464655"></path><path fill="#e4eaf8" d="m439.143 48.743 25.8-25.8a8 8 0 0 1 11.314 0l12.8 12.8a8 8 0 0 1 0 11.314l-25.8 25.8z" opacity="1" data-original="#e4eaf8"></path><path fill="#cbd9f8" d="m488.886 35.572-12.458-12.458a8.24 8.24 0 0 0-11.655 0l-6.02 6.02 6.438 6.438a8.242 8.242 0 0 1 0 11.656L451.41 61.009l11.848 11.848 25.629-25.629a8.242 8.242 0 0 0-.001-11.656z" opacity="1" data-original="#cbd9f8"></path><path fill="#464655" d="m381.534 34.011 17.468-17.468c6.248-6.248 16.379-6.248 22.627 0l73.828 73.828c6.248 6.248 6.248 16.379 0 22.627l-17.468 17.468z" opacity="1" data-original="#464655"></path><path fill="#3c3c4d" d="m495.115 90.029-73.144-73.144c-6.437-6.437-16.874-6.437-23.311 0l-.297.297 72.847 72.847c6.437 6.437 6.437 16.874 0 23.311l-5.173 5.173 11.953 11.953 17.126-17.126c6.436-6.437 6.436-16.874-.001-23.311z" opacity="1" data-original="#3c3c4d"></path><path fill="#e4eaf8" d="m48.743 439.143-25.8 25.8a8 8 0 0 0 0 11.314l12.8 12.8a8 8 0 0 0 11.314 0l25.8-25.8z" opacity="1" data-original="#e4eaf8"></path><path fill="#cbd9f8" d="M35.369 477.051c-3.137 3.137-8.168 3.207-11.401.23l11.605 11.605a8.242 8.242 0 0 0 11.656 0l25.629-25.629-11.848-11.848z" opacity="1" data-original="#cbd9f8"></path><path fill="#464655" d="m34.012 381.533-17.468 17.468c-6.248 6.248-6.248 16.379 0 22.627l73.828 73.828c6.248 6.248 16.379 6.248 22.627 0l17.468-17.468z" opacity="1" data-original="#464655"></path><path fill="#3c3c4d" d="M101.438 483.345c-6.021 6.021-15.539 6.408-22.013 1.166l10.604 10.604c6.437 6.437 16.874 6.437 23.311 0l17.126-17.126-11.836-11.836z" opacity="1" data-original="#3c3c4d"></path><path fill="#e4eaf8" d="m439.143 48.743 25.8-25.8a8 8 0 0 1 11.314 0l12.8 12.8a8 8 0 0 1 0 11.314l-25.8 25.8z" opacity="1" data-original="#e4eaf8"></path><path fill="#cbd9f8" d="m488.886 35.572-12.458-12.458a8.24 8.24 0 0 0-11.655 0l-6.02 6.02 6.438 6.438a8.242 8.242 0 0 1 0 11.656L451.41 61.009l11.848 11.848 25.629-25.629a8.242 8.242 0 0 0-.001-11.656z" opacity="1" data-original="#cbd9f8"></path><path fill="#ff507d" d="M507.172 150.314 361.686 4.828c-6.437-6.437-16.874-6.437-23.311 0l-30.744 30.744a8.242 8.242 0 0 0-2.018 8.359 1.017 1.017 0 0 1-1.279 1.279 8.242 8.242 0 0 0-8.359 2.018l-30.744 30.744c-6.437 6.437-6.437 16.874 0 23.311l145.486 145.486c6.437 6.437 16.874 6.437 23.311 0l30.744-30.744a8.241 8.241 0 0 0 2.018-8.359 1.017 1.017 0 0 1 1.279-1.279 8.242 8.242 0 0 0 8.359-2.018l30.744-30.745c6.437-6.436 6.437-16.873 0-23.31z" opacity="1" data-original="#ff507d"></path><path fill="#464655" d="m381.534 34.011 17.468-17.468c6.248-6.248 16.379-6.248 22.627 0l73.828 73.828c6.248 6.248 6.248 16.379 0 22.627l-17.468 17.468z" opacity="1" data-original="#464655"></path><path fill="#3c3c4d" d="m495.115 90.029-73.144-73.144c-6.437-6.437-16.874-6.437-23.311 0l-.297.297 72.847 72.847c6.437 6.437 6.437 16.874 0 23.311l-5.173 5.173 11.953 11.953 17.126-17.126c6.436-6.437 6.436-16.874-.001-23.311z" opacity="1" data-original="#3c3c4d"></path><g fill="#d23c69"><path d="M507.172 150.314 361.686 4.828c-6.437-6.437-16.874-6.437-23.311 0l-.192.192 145.294 145.294c6.437 6.437 6.437 16.874 0 23.311l-72.952 72.952.192.192c6.437 6.437 16.874 6.437 23.311 0l30.744-30.744a8.241 8.241 0 0 0 2.018-8.359 1.017 1.017 0 0 1 1.279-1.279 8.242 8.242 0 0 0 8.359-2.018l30.744-30.745c6.437-6.436 6.437-16.873 0-23.31z" fill="#d23c69" opacity="1" data-original="#d23c69"></path><path d="M307.292 35.962a8.233 8.233 0 0 0-1.679 7.968 1.017 1.017 0 0 1-1.279 1.279 8.235 8.235 0 0 0-7.969 1.679L465.11 215.633a8.235 8.235 0 0 0 1.679-7.969 1.017 1.017 0 0 1 1.279-1.279 8.235 8.235 0 0 0 7.969-1.679z" fill="#d23c69" opacity="1" data-original="#d23c69"></path></g><path fill="#ff507d" d="M507.172 150.314 361.686 4.828c-6.437-6.437-16.874-6.437-23.311 0l-30.744 30.744a8.242 8.242 0 0 0-2.018 8.359 1.017 1.017 0 0 1-1.279 1.279 8.242 8.242 0 0 0-8.359 2.018l-30.744 30.744c-6.437 6.437-6.437 16.874 0 23.311l145.486 145.486c6.437 6.437 16.874 6.437 23.311 0l30.744-30.744a8.241 8.241 0 0 0 2.018-8.359 1.017 1.017 0 0 1 1.279-1.279 8.242 8.242 0 0 0 8.359-2.018l30.744-30.745c6.437-6.436 6.437-16.873 0-23.31z" opacity="1" data-original="#ff507d"></path><path fill="#d23c69" d="M507.172 150.314 361.686 4.828c-6.437-6.437-16.874-6.437-23.311 0l-.192.192 145.294 145.294c6.437 6.437 6.437 16.874 0 23.311l-72.952 72.952.192.192c6.437 6.437 16.874 6.437 23.311 0l30.744-30.744a8.241 8.241 0 0 0 2.018-8.359 1.017 1.017 0 0 1 1.279-1.279 8.242 8.242 0 0 0 8.359-2.018l30.744-30.745c6.437-6.436 6.437-16.873 0-23.31z" opacity="1" data-original="#d23c69"></path><path fill="#d23c69" d="M307.292 35.962a8.233 8.233 0 0 0-1.679 7.968 1.017 1.017 0 0 1-1.279 1.279 8.235 8.235 0 0 0-7.969 1.679L465.11 215.633a8.235 8.235 0 0 0 1.679-7.969 1.017 1.017 0 0 1 1.279-1.279 8.235 8.235 0 0 0 7.969-1.679z" opacity="1" data-original="#d23c69"></path><path fill="#ff507d" d="M246.769 410.717 101.283 265.231c-6.437-6.437-16.874-6.437-23.311 0l-30.744 30.744a8.242 8.242 0 0 0-2.018 8.359 1.017 1.017 0 0 1-1.279 1.279 8.24 8.24 0 0 0-8.359 2.018L4.828 338.375c-6.437 6.437-6.437 16.874 0 23.311l145.486 145.486c6.437 6.437 16.874 6.437 23.311 0l30.744-30.744a8.241 8.241 0 0 0 2.017-8.359 1.017 1.017 0 0 1 1.279-1.279 8.243 8.243 0 0 0 8.359-2.017l30.744-30.744c6.438-6.438 6.438-16.875.001-23.312z" opacity="1" data-original="#ff507d"></path><g fill="#d23c69"><path d="M246.769 410.717 101.283 265.231c-6.437-6.437-16.874-6.437-23.311 0l-.192.192 145.294 145.294c6.437 6.437 6.437 16.874 0 23.311l-72.952 72.952.192.192c6.437 6.437 16.874 6.437 23.311 0l30.744-30.744a8.241 8.241 0 0 0 2.017-8.359 1.017 1.017 0 0 1 1.279-1.279 8.241 8.241 0 0 0 8.359-2.017l30.744-30.744c6.438-6.438 6.438-16.875.001-23.312z" fill="#d23c69" opacity="1" data-original="#d23c69"></path><path d="M46.889 296.366a8.235 8.235 0 0 0-1.679 7.969 1.017 1.017 0 0 1-1.279 1.279 8.235 8.235 0 0 0-7.969 1.679l168.745 168.745a8.235 8.235 0 0 0 1.679-7.969 1.017 1.017 0 0 1 1.279-1.279 8.235 8.235 0 0 0 7.969-1.679z" fill="#d23c69" opacity="1" data-original="#d23c69"></path></g></g></svg>